<svg width="20" height="20" viewBox="0 0 20 20" fill="none" xmlns="http://www.w3.org/2000/svg">
<path d="M6.83333 2H13.8333C16.5 2 18.6667 4.16667 18.6667 6.83333V13.8333C18.6667 15.1152 18.1574 16.3446 17.251 17.251C16.3446 18.1574 15.1152 18.6667 13.8333 18.6667H6.83333C4.16667 18.6667 2 16.5 2 13.8333V6.83333C2 5.55145 2.50922 4.32208 3.41565 3.41565C4.32208 2.50922 5.55145 2 6.83333 2ZM6.66667 3.66667C5.87102 3.66667 5.10796 3.98274 4.54535 4.54535C3.98274 5.10796 3.66667 5.87102 3.66667 6.66667V14C3.66667 15.6583 5.00833 17 6.66667 17H14C14.7956 17 15.5587 16.6839 16.1213 16.1213C16.6839 15.5587 17 14.7956 17 14V6.66667C17 5.00833 15.6583 3.66667 14 3.66667H6.66667ZM14.7083 4.91667C14.9846 4.91667 15.2496 5.02641 15.4449 5.22176C15.6403 5.41711 15.75 5.68207 15.75 5.95833C15.75 6.2346 15.6403 6.49955 15.4449 6.6949C15.2496 6.89025 14.9846 7 14.7083 7C14.4321 7 14.1671 6.89025 13.9718 6.6949C13.7764 6.49955 13.6667 6.2346 13.6667 5.95833C13.6667 5.68207 13.7764 5.41711 13.9718 5.22176C14.1671 5.02641 14.4321 4.91667 14.7083 4.91667ZM10.3333 6.16667C11.4384 6.16667 12.4982 6.60565 13.2796 7.38705C14.061 8.16846 14.5 9.22826 14.5 10.3333C14.5 11.4384 14.061 12.4982 13.2796 13.2796C12.4982 14.061 11.4384 14.5 10.3333 14.5C9.22826 14.5 8.16846 14.061 7.38705 13.2796C6.60565 12.4982 6.16667 11.4384 6.16667 10.3333C6.16667 9.22826 6.60565 8.16846 7.38705 7.38705C8.16846 6.60565 9.22826 6.16667 10.3333 6.16667ZM10.3333 7.83333C9.67029 7.83333 9.03441 8.09672 8.56557 8.56557C8.09672 9.03441 7.83333 9.67029 7.83333 10.3333C7.83333 10.9964 8.09672 11.6323 8.56557 12.1011C9.03441 12.5699 9.67029 12.8333 10.3333 12.8333C10.9964 12.8333 11.6323 12.5699 12.1011 12.1011C12.5699 11.6323 12.8333 10.9964 12.8333 10.3333C12.8333 9.67029 12.5699 9.03441 12.1011 8.56557C11.6323 8.09672 10.9964 7.83333 10.3333 7.83333Z" fill="url(#paint0_linear_57_55)"/>
<defs>
<linearGradient id="paint0_linear_57_55" x1="4.47384" y1="15.5983" x2="15.874" y2="5.35489" gradientUnits="userSpaceOnUse">
<stop stop-color="#F7E93F"/>
<stop offset="0.5112" stop-color="#FB09B4"/>
<stop offset="1" stop-color="#9100F8"/>
</linearGradient>
</defs>
</svg>
