<svg width="20" height="20" viewBox="0 0 20 20" fill="none" xmlns="http://www.w3.org/2000/svg">
<path d="M2.00006 9.83333C2.00006 7.08333 2.00006 5.70833 3.22006 4.85417C4.44173 4 6.40506 4 10.3334 4C14.2617 4 16.2259 4 17.4459 4.85417C18.6659 5.70833 18.6667 7.08333 18.6667 9.83333C18.6667 12.5833 18.6667 13.9583 17.4459 14.8125C16.2267 15.6667 14.2617 15.6667 10.3334 15.6667C6.40506 15.6667 4.44089 15.6667 3.22006 14.8125C1.99923 13.9583 2.00006 12.5833 2.00006 9.83333Z" stroke="url(#paint0_linear_57_59)" stroke-width="1.5" stroke-linecap="round" stroke-linejoin="round"/>
<path d="M9.08338 8.09011V11.5768C9.0836 11.6216 9.09265 11.666 9.11002 11.7074C9.1274 11.7488 9.15275 11.7863 9.18463 11.8179C9.21651 11.8495 9.2543 11.8744 9.29583 11.8914C9.33737 11.9084 9.38184 11.917 9.42671 11.9168C9.49433 11.9176 9.56059 11.8978 9.61671 11.8601L12.2625 10.1318C12.3096 10.1013 12.3484 10.0596 12.3753 10.0104C12.4022 9.96117 12.4164 9.90604 12.4166 9.84996C12.4169 9.79388 12.4032 9.73862 12.3767 9.68918C12.3502 9.63974 12.3118 9.59767 12.265 9.56678L9.61921 7.80845C9.54357 7.75781 9.45102 7.73904 9.36163 7.7562C9.27224 7.77336 9.19322 7.82507 9.14171 7.90011C9.1034 7.95604 9.08305 8.02232 9.08338 8.09011Z" stroke="url(#paint1_linear_57_59)" stroke-width="1.5" stroke-linecap="round" stroke-linejoin="round"/>
<defs>
<linearGradient id="paint0_linear_57_59" x1="4.47391" y1="13.5188" x2="12.2559" y2="3.52969" gradientUnits="userSpaceOnUse">
<stop stop-color="#F7E93F"/>
<stop offset="0.5112" stop-color="#FB09B4"/>
<stop offset="1" stop-color="#9100F8"/>
</linearGradient>
<linearGradient id="paint1_linear_57_59" x1="9.57813" y1="11.1497" x2="12.2951" y2="9.19674" gradientUnits="userSpaceOnUse">
<stop stop-color="#F7E93F"/>
<stop offset="0.5112" stop-color="#FB09B4"/>
<stop offset="1" stop-color="#9100F8"/>
</linearGradient>
</defs>
</svg>
